G75*
%MOIN*%
%OFA0B0*%
%FSLAX25Y25*%
%IPPOS*%
%LPD*%
%AMOC8*
5,1,8,0,0,1.08239X$1,22.5*
%
%ADD10OC8,0.07100*%
%ADD11C,0.06000*%
%ADD12C,0.07400*%
%ADD13C,0.13800*%
%ADD14C,0.06800*%
%ADD15OC8,0.06000*%
%ADD16C,0.01600*%
%ADD17C,0.01200*%
%ADD18C,0.04800*%
%ADD19R,0.04762X0.04762*%
D10*
X0071800Y0148300D03*
X0071800Y0158300D03*
X0077800Y0173300D03*
X0077800Y0188300D03*
X0087800Y0188300D03*
X0087800Y0173300D03*
X0088800Y0158300D03*
X0088800Y0148300D03*
X0087800Y0203300D03*
X0077800Y0203300D03*
X0077800Y0218300D03*
X0087800Y0218300D03*
X0132800Y0138300D03*
X0142800Y0138300D03*
D11*
X0013800Y0038900D02*
X0013800Y0033700D01*
X0023800Y0033700D02*
X0023800Y0038900D01*
X0033800Y0038900D02*
X0033800Y0033700D01*
X0043800Y0033700D02*
X0043800Y0038900D01*
X0053800Y0038900D02*
X0053800Y0033700D01*
X0063800Y0033700D02*
X0063800Y0038900D01*
X0063800Y0215700D02*
X0063800Y0220900D01*
X0053800Y0220900D02*
X0053800Y0215700D01*
X0043800Y0215700D02*
X0043800Y0220900D01*
X0033800Y0220900D02*
X0033800Y0215700D01*
X0023800Y0215700D02*
X0023800Y0220900D01*
X0013800Y0220900D02*
X0013800Y0215700D01*
D12*
X0122800Y0156600D02*
X0122800Y0150000D01*
X0132800Y0150000D02*
X0132800Y0156600D01*
X0142800Y0156600D02*
X0142800Y0150000D01*
D13*
X0132800Y0212300D03*
D14*
X0142800Y0121300D02*
X0148800Y0121300D01*
X0148800Y0111300D02*
X0142800Y0111300D01*
X0142800Y0101300D02*
X0148800Y0101300D01*
X0148800Y0091300D02*
X0142800Y0091300D01*
X0142800Y0071300D02*
X0148800Y0071300D01*
X0148800Y0061300D02*
X0142800Y0061300D01*
X0142800Y0051300D02*
X0148800Y0051300D01*
X0148800Y0041300D02*
X0142800Y0041300D01*
X0063800Y0047300D02*
X0063800Y0053300D01*
X0053800Y0053300D02*
X0053800Y0047300D01*
X0043800Y0047300D02*
X0043800Y0053300D01*
X0033800Y0053300D02*
X0033800Y0047300D01*
X0023800Y0047300D02*
X0023800Y0053300D01*
X0013800Y0053300D02*
X0013800Y0047300D01*
X0013800Y0199300D02*
X0013800Y0205300D01*
X0023800Y0205300D02*
X0023800Y0199300D01*
X0033800Y0199300D02*
X0033800Y0205300D01*
X0043800Y0205300D02*
X0043800Y0199300D01*
X0053800Y0199300D02*
X0053800Y0205300D01*
X0063800Y0205300D02*
X0063800Y0199300D01*
D15*
X0102800Y0188300D03*
X0102800Y0178300D03*
X0102800Y0148300D03*
X0100800Y0135300D03*
X0113800Y0129300D03*
X0127800Y0129300D03*
X0127800Y0099300D03*
X0127800Y0086300D03*
X0127800Y0070300D03*
X0127800Y0056300D03*
X0127800Y0041300D03*
X0097800Y0041300D03*
X0097800Y0056300D03*
X0097800Y0070300D03*
X0097800Y0086300D03*
X0085800Y0086300D03*
X0085800Y0070300D03*
X0071800Y0106300D03*
X0055800Y0086300D03*
X0045800Y0086300D03*
X0045800Y0070300D03*
X0055800Y0070300D03*
X0015800Y0070300D03*
X0015800Y0086300D03*
X0070800Y0135300D03*
X0101800Y0106300D03*
X0113800Y0099300D03*
X0102800Y0218300D03*
D16*
X0105048Y0214326D02*
X0121644Y0214326D01*
X0121500Y0213788D02*
X0121500Y0210812D01*
X0122270Y0207938D01*
X0123758Y0205362D01*
X0125862Y0203258D01*
X0128438Y0201770D01*
X0131312Y0201000D01*
X0134288Y0201000D01*
X0137162Y0201770D01*
X0139738Y0203258D01*
X0141842Y0205362D01*
X0143330Y0207938D01*
X0144100Y0210812D01*
X0144100Y0213788D01*
X0143330Y0216662D01*
X0141842Y0219238D01*
X0139738Y0221342D01*
X0137801Y0222461D01*
X0150701Y0222461D01*
X0150701Y0125708D01*
X0149755Y0126100D01*
X0141845Y0126100D01*
X0140081Y0125369D01*
X0138731Y0124019D01*
X0138000Y0122255D01*
X0138000Y0120345D01*
X0138731Y0118581D01*
X0140081Y0117231D01*
X0141845Y0116500D01*
X0149755Y0116500D01*
X0150701Y0116892D01*
X0150701Y0115708D01*
X0149755Y0116100D01*
X0141845Y0116100D01*
X0140081Y0115369D01*
X0138731Y0114019D01*
X0138000Y0112255D01*
X0138000Y0110345D01*
X0138731Y0108581D01*
X0140081Y0107231D01*
X0141845Y0106500D01*
X0149755Y0106500D01*
X0150701Y0106892D01*
X0150701Y0105719D01*
X0150643Y0105748D01*
X0149924Y0105982D01*
X0149178Y0106100D01*
X0146000Y0106100D01*
X0146000Y0101500D01*
X0145600Y0101500D01*
X0145600Y0106100D01*
X0142422Y0106100D01*
X0141676Y0105982D01*
X0140957Y0105748D01*
X0140284Y0105405D01*
X0139673Y0104961D01*
X0139139Y0104427D01*
X0138695Y0103816D01*
X0138352Y0103143D01*
X0138118Y0102424D01*
X0138000Y0101678D01*
X0138000Y0101500D01*
X0145600Y0101500D01*
X0145600Y0101100D01*
X0146000Y0101100D01*
X0146000Y0096500D01*
X0149178Y0096500D01*
X0149924Y0096618D01*
X0150643Y0096852D01*
X0150701Y0096881D01*
X0150701Y0095708D01*
X0149755Y0096100D01*
X0141845Y0096100D01*
X0140081Y0095369D01*
X0138731Y0094019D01*
X0138000Y0092255D01*
X0138000Y0090744D01*
X0135659Y0093085D01*
X0134777Y0093450D01*
X0129044Y0093450D01*
X0127594Y0094900D01*
X0127800Y0094900D01*
X0129623Y0094900D01*
X0132200Y0097477D01*
X0132200Y0099300D01*
X0132200Y0101123D01*
X0129623Y0103700D01*
X0127800Y0103700D01*
X0127800Y0099300D01*
X0127800Y0099300D01*
X0132200Y0099300D01*
X0127800Y0099300D01*
X0127800Y0099300D01*
X0127800Y0099300D01*
X0123400Y0099300D01*
X0123400Y0101123D01*
X0125977Y0103700D01*
X0127800Y0103700D01*
X0127800Y0099300D01*
X0127800Y0094900D01*
X0127800Y0099300D01*
X0127800Y0099300D01*
X0123400Y0099300D01*
X0123400Y0099094D01*
X0095659Y0126835D01*
X0094777Y0127200D01*
X0091024Y0127200D01*
X0090203Y0128021D01*
X0088806Y0128600D01*
X0087294Y0128600D01*
X0085897Y0128021D01*
X0084829Y0126953D01*
X0084250Y0125556D01*
X0084250Y0124044D01*
X0084829Y0122647D01*
X0085897Y0121579D01*
X0087294Y0121000D01*
X0088806Y0121000D01*
X0090203Y0121579D01*
X0091024Y0122400D01*
X0093306Y0122400D01*
X0112006Y0103700D01*
X0111977Y0103700D01*
X0109400Y0101123D01*
X0109400Y0097477D01*
X0111977Y0094900D01*
X0115623Y0094900D01*
X0118200Y0097477D01*
X0118200Y0097506D01*
X0125492Y0090214D01*
X0123400Y0088123D01*
X0123400Y0084477D01*
X0125977Y0081900D01*
X0129623Y0081900D01*
X0132200Y0084477D01*
X0132200Y0088123D01*
X0131673Y0088650D01*
X0133306Y0088650D01*
X0135500Y0086456D01*
X0135500Y0085294D01*
X0136079Y0083897D01*
X0137147Y0082829D01*
X0138411Y0082305D01*
X0137056Y0080950D01*
X0122794Y0080950D01*
X0101844Y0101900D01*
X0103623Y0101900D01*
X0106200Y0104477D01*
X0106200Y0106300D01*
X0106200Y0108123D01*
X0103623Y0110700D01*
X0101800Y0110700D01*
X0101800Y0106300D01*
X0101800Y0106300D01*
X0106200Y0106300D01*
X0101800Y0106300D01*
X0101800Y0106300D01*
X0101800Y0110700D01*
X0099977Y0110700D01*
X0097400Y0108123D01*
X0097400Y0106344D01*
X0082950Y0120794D01*
X0082950Y0159027D01*
X0082585Y0159909D01*
X0081909Y0160585D01*
X0056700Y0185794D01*
X0056700Y0195412D01*
X0057869Y0196581D01*
X0058600Y0198345D01*
X0058600Y0206255D01*
X0057869Y0208019D01*
X0056519Y0209369D01*
X0054755Y0210100D01*
X0052845Y0210100D01*
X0051081Y0209369D01*
X0049731Y0208019D01*
X0049000Y0206255D01*
X0049000Y0198345D01*
X0049731Y0196581D01*
X0051081Y0195231D01*
X0051900Y0194892D01*
X0051900Y0184323D01*
X0052265Y0183441D01*
X0072456Y0163250D01*
X0071800Y0163250D01*
X0071800Y0158300D01*
X0071800Y0158300D01*
X0076750Y0158300D01*
X0076750Y0158956D01*
X0078150Y0157556D01*
X0078150Y0119323D01*
X0078511Y0118450D01*
X0068524Y0118450D01*
X0067703Y0119271D01*
X0066306Y0119850D01*
X0064794Y0119850D01*
X0063397Y0119271D01*
X0062329Y0118203D01*
X0061750Y0116806D01*
X0061750Y0115294D01*
X0062329Y0113897D01*
X0063397Y0112829D01*
X0064794Y0112250D01*
X0066306Y0112250D01*
X0067703Y0112829D01*
X0068524Y0113650D01*
X0079556Y0113650D01*
X0123400Y0069806D01*
X0123400Y0068477D01*
X0123427Y0068450D01*
X0112794Y0068450D01*
X0101335Y0079909D01*
X0100659Y0080585D01*
X0099777Y0080950D01*
X0062794Y0080950D01*
X0062585Y0081159D01*
X0061909Y0081835D01*
X0061027Y0082200D01*
X0057923Y0082200D01*
X0060200Y0084477D01*
X0060200Y0088123D01*
X0057623Y0090700D01*
X0053977Y0090700D01*
X0051400Y0088123D01*
X0051400Y0084477D01*
X0053677Y0082200D01*
X0047923Y0082200D01*
X0050200Y0084477D01*
X0050200Y0088123D01*
X0047623Y0090700D01*
X0043977Y0090700D01*
X0041400Y0088123D01*
X0041400Y0084477D01*
X0043677Y0082200D01*
X0037573Y0082200D01*
X0036691Y0081835D01*
X0012956Y0058100D01*
X0012845Y0058100D01*
X0011600Y0057584D01*
X0011600Y0068277D01*
X0013977Y0065900D01*
X0017623Y0065900D01*
X0020200Y0068477D01*
X0020200Y0072123D01*
X0017623Y0074700D01*
X0013977Y0074700D01*
X0011600Y0072323D01*
X0011600Y0084277D01*
X0013977Y0081900D01*
X0015800Y0081900D01*
X0017623Y0081900D01*
X0020200Y0084477D01*
X0020200Y0086300D01*
X0020200Y0088123D01*
X0017623Y0090700D01*
X0015800Y0090700D01*
X0015800Y0086300D01*
X0015800Y0086300D01*
X0020200Y0086300D01*
X0015800Y0086300D01*
X0015800Y0086300D01*
X0015800Y0090700D01*
X0013977Y0090700D01*
X0011600Y0088323D01*
X0011600Y0195016D01*
X0012845Y0194500D01*
X0014755Y0194500D01*
X0014897Y0194559D01*
X0063515Y0145941D01*
X0064191Y0145265D01*
X0065073Y0144900D01*
X0068200Y0144900D01*
X0069750Y0143350D01*
X0073850Y0143350D01*
X0076750Y0146250D01*
X0076750Y0150350D01*
X0073850Y0153250D01*
X0069750Y0153250D01*
X0066850Y0150350D01*
X0066850Y0149700D01*
X0066544Y0149700D01*
X0018395Y0197849D01*
X0018600Y0198345D01*
X0018600Y0206255D01*
X0017869Y0208019D01*
X0016519Y0209369D01*
X0014755Y0210100D01*
X0012845Y0210100D01*
X0011600Y0209584D01*
X0011600Y0211849D01*
X0012925Y0211300D01*
X0014675Y0211300D01*
X0016292Y0211970D01*
X0017530Y0213208D01*
X0018200Y0214825D01*
X0018200Y0221775D01*
X0017916Y0222461D01*
X0019684Y0222461D01*
X0019400Y0221775D01*
X0019400Y0214825D01*
X0020070Y0213208D01*
X0021308Y0211970D01*
X0022925Y0211300D01*
X0024675Y0211300D01*
X0026292Y0211970D01*
X0027530Y0213208D01*
X0028200Y0214825D01*
X0028200Y0221775D01*
X0027916Y0222461D01*
X0029684Y0222461D01*
X0029400Y0221775D01*
X0029400Y0214825D01*
X0030070Y0213208D01*
X0031308Y0211970D01*
X0032925Y0211300D01*
X0034675Y0211300D01*
X0036292Y0211970D01*
X0037530Y0213208D01*
X0038200Y0214825D01*
X0038200Y0221775D01*
X0037916Y0222461D01*
X0039681Y0222461D01*
X0039508Y0221930D01*
X0039400Y0221246D01*
X0039400Y0218300D01*
X0043800Y0218300D01*
X0048200Y0218300D01*
X0048200Y0221246D01*
X0048092Y0221930D01*
X0047919Y0222461D01*
X0049684Y0222461D01*
X0049400Y0221775D01*
X0049400Y0214825D01*
X0050070Y0213208D01*
X0051308Y0211970D01*
X0052925Y0211300D01*
X0054675Y0211300D01*
X0056292Y0211970D01*
X0057530Y0213208D01*
X0058200Y0214825D01*
X0058200Y0221775D01*
X0057916Y0222461D01*
X0059684Y0222461D01*
X0059400Y0221775D01*
X0059400Y0214825D01*
X0060070Y0213208D01*
X0061308Y0211970D01*
X0062925Y0211300D01*
X0064675Y0211300D01*
X0066292Y0211970D01*
X0067530Y0213208D01*
X0068200Y0214825D01*
X0068200Y0221775D01*
X0067916Y0222461D01*
X0074960Y0222461D01*
X0072850Y0220350D01*
X0072850Y0216250D01*
X0075750Y0213350D01*
X0079850Y0213350D01*
X0082750Y0216250D01*
X0082750Y0220350D01*
X0080640Y0222461D01*
X0084960Y0222461D01*
X0082850Y0220350D01*
X0082850Y0218300D01*
X0087800Y0218300D01*
X0092750Y0218300D01*
X0092750Y0220350D01*
X0090640Y0222461D01*
X0100738Y0222461D01*
X0098400Y0220123D01*
X0098400Y0216477D01*
X0100977Y0213900D01*
X0104623Y0213900D01*
X0107200Y0216477D01*
X0107200Y0220123D01*
X0104862Y0222461D01*
X0127799Y0222461D01*
X0125862Y0221342D01*
X0123758Y0219238D01*
X0122270Y0216662D01*
X0121500Y0213788D01*
X0121500Y0212727D02*
X0067050Y0212727D01*
X0067993Y0214326D02*
X0074774Y0214326D01*
X0073175Y0215924D02*
X0068200Y0215924D01*
X0068200Y0217523D02*
X0072850Y0217523D01*
X0072850Y0219121D02*
X0068200Y0219121D01*
X0068200Y0220720D02*
X0073220Y0220720D01*
X0074818Y0222318D02*
X0067975Y0222318D01*
X0059625Y0222318D02*
X0057975Y0222318D01*
X0058200Y0220720D02*
X0059400Y0220720D01*
X0059400Y0219121D02*
X0058200Y0219121D01*
X0058200Y0217523D02*
X0059400Y0217523D01*
X0059400Y0215924D02*
X0058200Y0215924D01*
X0057993Y0214326D02*
X0059607Y0214326D01*
X0060550Y0212727D02*
X0057050Y0212727D01*
X0056130Y0209530D02*
X0061470Y0209530D01*
X0061081Y0209369D02*
X0059731Y0208019D01*
X0059000Y0206255D01*
X0059000Y0198345D01*
X0059731Y0196581D01*
X0061081Y0195231D01*
X0062845Y0194500D01*
X0064755Y0194500D01*
X0066519Y0195231D01*
X0067869Y0196581D01*
X0068600Y0198345D01*
X0068600Y0206255D01*
X0067869Y0208019D01*
X0066519Y0209369D01*
X0064755Y0210100D01*
X0062845Y0210100D01*
X0061081Y0209369D01*
X0059695Y0207932D02*
X0057905Y0207932D01*
X0058567Y0206333D02*
X0059033Y0206333D01*
X0059000Y0204735D02*
X0058600Y0204735D01*
X0058600Y0203136D02*
X0059000Y0203136D01*
X0059000Y0201538D02*
X0058600Y0201538D01*
X0058600Y0199939D02*
X0059000Y0199939D01*
X0059002Y0198341D02*
X0058598Y0198341D01*
X0057936Y0196742D02*
X0059664Y0196742D01*
X0061291Y0195144D02*
X0056700Y0195144D01*
X0056700Y0193545D02*
X0150701Y0193545D01*
X0150701Y0191947D02*
X0105376Y0191947D01*
X0104623Y0192700D02*
X0100977Y0192700D01*
X0098400Y0190123D01*
X0098400Y0186477D01*
X0100977Y0183900D01*
X0104623Y0183900D01*
X0107200Y0186477D01*
X0107200Y0190123D01*
X0104623Y0192700D01*
X0106974Y0190348D02*
X0150701Y0190348D01*
X0150701Y0188750D02*
X0107200Y0188750D01*
X0107200Y0187151D02*
X0150701Y0187151D01*
X0150701Y0185553D02*
X0106275Y0185553D01*
X0104677Y0183954D02*
X0150701Y0183954D01*
X0150701Y0182356D02*
X0104967Y0182356D01*
X0104623Y0182700D02*
X0100977Y0182700D01*
X0098400Y0180123D01*
X0098400Y0176477D01*
X0099400Y0175477D01*
X0099400Y0158073D01*
X0099765Y0157191D01*
X0100441Y0156515D01*
X0104256Y0152700D01*
X0100977Y0152700D01*
X0098400Y0150123D01*
X0098400Y0146477D01*
X0100977Y0143900D01*
X0104623Y0143900D01*
X0107200Y0146477D01*
X0107200Y0149756D01*
X0124400Y0132556D01*
X0124400Y0132123D01*
X0123400Y0131123D01*
X0123400Y0127477D01*
X0125977Y0124900D01*
X0129623Y0124900D01*
X0132200Y0127477D01*
X0132200Y0131123D01*
X0129623Y0133700D01*
X0129200Y0133700D01*
X0129200Y0134027D01*
X0128835Y0134909D01*
X0104200Y0159544D01*
X0104200Y0173900D01*
X0104623Y0173900D01*
X0107200Y0176477D01*
X0107200Y0180123D01*
X0104623Y0182700D01*
X0106565Y0180757D02*
X0150701Y0180757D01*
X0150701Y0179159D02*
X0107200Y0179159D01*
X0107200Y0177560D02*
X0150701Y0177560D01*
X0150701Y0175962D02*
X0106684Y0175962D01*
X0105086Y0174363D02*
X0150701Y0174363D01*
X0150701Y0172765D02*
X0104200Y0172765D01*
X0104200Y0171166D02*
X0150701Y0171166D01*
X0150701Y0169568D02*
X0104200Y0169568D01*
X0104200Y0167969D02*
X0150701Y0167969D01*
X0150701Y0166370D02*
X0104200Y0166370D01*
X0104200Y0164772D02*
X0150701Y0164772D01*
X0150701Y0163173D02*
X0104200Y0163173D01*
X0104200Y0161575D02*
X0121484Y0161575D01*
X0121786Y0161700D02*
X0119911Y0160924D01*
X0118476Y0159489D01*
X0117700Y0157614D01*
X0117700Y0148986D01*
X0118476Y0147111D01*
X0119911Y0145676D01*
X0121786Y0144900D01*
X0123814Y0144900D01*
X0125689Y0145676D01*
X0127124Y0147111D01*
X0127800Y0148744D01*
X0128476Y0147111D01*
X0129911Y0145676D01*
X0131786Y0144900D01*
X0133814Y0144900D01*
X0135689Y0145676D01*
X0137124Y0147111D01*
X0137800Y0148744D01*
X0138476Y0147111D01*
X0139911Y0145676D01*
X0141786Y0144900D01*
X0143814Y0144900D01*
X0145689Y0145676D01*
X0147124Y0147111D01*
X0147900Y0148986D01*
X0147900Y0157614D01*
X0147124Y0159489D01*
X0145689Y0160924D01*
X0143814Y0161700D01*
X0141786Y0161700D01*
X0139911Y0160924D01*
X0138476Y0159489D01*
X0137800Y0157856D01*
X0137124Y0159489D01*
X0135689Y0160924D01*
X0133814Y0161700D01*
X0131786Y0161700D01*
X0129911Y0160924D01*
X0128476Y0159489D01*
X0127800Y0157856D01*
X0127124Y0159489D01*
X0125689Y0160924D01*
X0123814Y0161700D01*
X0121786Y0161700D01*
X0118964Y0159976D02*
X0104200Y0159976D01*
X0105366Y0158378D02*
X0118016Y0158378D01*
X0117700Y0156779D02*
X0106965Y0156779D01*
X0108563Y0155181D02*
X0117700Y0155181D01*
X0117700Y0153582D02*
X0110162Y0153582D01*
X0111760Y0151984D02*
X0117700Y0151984D01*
X0117700Y0150385D02*
X0113359Y0150385D01*
X0114957Y0148787D02*
X0117782Y0148787D01*
X0118444Y0147188D02*
X0116556Y0147188D01*
X0118154Y0145590D02*
X0120120Y0145590D01*
X0119753Y0143991D02*
X0150701Y0143991D01*
X0150701Y0142393D02*
X0145708Y0142393D01*
X0144850Y0143250D02*
X0140750Y0143250D01*
X0137850Y0140350D01*
X0137850Y0136250D01*
X0140750Y0133350D01*
X0144850Y0133350D01*
X0147750Y0136250D01*
X0147750Y0140350D01*
X0144850Y0143250D01*
X0145480Y0145590D02*
X0150701Y0145590D01*
X0150701Y0147188D02*
X0147156Y0147188D01*
X0147818Y0148787D02*
X0150701Y0148787D01*
X0150701Y0150385D02*
X0147900Y0150385D01*
X0147900Y0151984D02*
X0150701Y0151984D01*
X0150701Y0153582D02*
X0147900Y0153582D01*
X0147900Y0155181D02*
X0150701Y0155181D01*
X0150701Y0156779D02*
X0147900Y0156779D01*
X0147584Y0158378D02*
X0150701Y0158378D01*
X0150701Y0159976D02*
X0146636Y0159976D01*
X0144116Y0161575D02*
X0150701Y0161575D01*
X0141484Y0161575D02*
X0134116Y0161575D01*
X0136636Y0159976D02*
X0138964Y0159976D01*
X0138016Y0158378D02*
X0137584Y0158378D01*
X0131484Y0161575D02*
X0124116Y0161575D01*
X0126636Y0159976D02*
X0128964Y0159976D01*
X0128016Y0158378D02*
X0127584Y0158378D01*
X0127156Y0147188D02*
X0128444Y0147188D01*
X0130120Y0145590D02*
X0125480Y0145590D01*
X0121351Y0142393D02*
X0129892Y0142393D01*
X0130750Y0143250D02*
X0127850Y0140350D01*
X0127850Y0136250D01*
X0130750Y0133350D01*
X0134850Y0133350D01*
X0137750Y0136250D01*
X0137750Y0140350D01*
X0134850Y0143250D01*
X0130750Y0143250D01*
X0128294Y0140794D02*
X0122950Y0140794D01*
X0124548Y0139196D02*
X0127850Y0139196D01*
X0127850Y0137597D02*
X0126147Y0137597D01*
X0127745Y0135999D02*
X0128101Y0135999D01*
X0129046Y0134400D02*
X0129699Y0134400D01*
X0130521Y0132802D02*
X0150701Y0132802D01*
X0150701Y0134400D02*
X0145901Y0134400D01*
X0147499Y0135999D02*
X0150701Y0135999D01*
X0150701Y0137597D02*
X0147750Y0137597D01*
X0147750Y0139196D02*
X0150701Y0139196D01*
X0150701Y0140794D02*
X0147306Y0140794D01*
X0150701Y0131203D02*
X0132119Y0131203D01*
X0132200Y0129605D02*
X0150701Y0129605D01*
X0150701Y0128006D02*
X0132200Y0128006D01*
X0131130Y0126408D02*
X0150701Y0126408D01*
X0150701Y0116817D02*
X0150519Y0116817D01*
X0146000Y0105627D02*
X0145600Y0105627D01*
X0145600Y0104029D02*
X0146000Y0104029D01*
X0146000Y0102430D02*
X0145600Y0102430D01*
X0145600Y0101100D02*
X0138000Y0101100D01*
X0138000Y0100922D01*
X0138118Y0100176D01*
X0138352Y0099457D01*
X0138695Y0098784D01*
X0139139Y0098173D01*
X0139673Y0097639D01*
X0140284Y0097195D01*
X0140957Y0096852D01*
X0141676Y0096618D01*
X0142422Y0096500D01*
X0145600Y0096500D01*
X0145600Y0101100D01*
X0145600Y0100832D02*
X0146000Y0100832D01*
X0146000Y0099233D02*
X0145600Y0099233D01*
X0145600Y0097634D02*
X0146000Y0097634D01*
X0149909Y0096036D02*
X0150701Y0096036D01*
X0141691Y0096036D02*
X0130759Y0096036D01*
X0132200Y0097634D02*
X0139679Y0097634D01*
X0138466Y0099233D02*
X0132200Y0099233D01*
X0132200Y0100832D02*
X0138014Y0100832D01*
X0138120Y0102430D02*
X0130892Y0102430D01*
X0127800Y0102430D02*
X0127800Y0102430D01*
X0127800Y0100832D02*
X0127800Y0100832D01*
X0127800Y0099233D02*
X0127800Y0099233D01*
X0127800Y0097634D02*
X0127800Y0097634D01*
X0127800Y0096036D02*
X0127800Y0096036D01*
X0128057Y0094437D02*
X0139149Y0094437D01*
X0138242Y0092839D02*
X0135905Y0092839D01*
X0137504Y0091240D02*
X0138000Y0091240D01*
X0133912Y0088043D02*
X0132200Y0088043D01*
X0132200Y0086445D02*
X0135500Y0086445D01*
X0135685Y0084846D02*
X0132200Y0084846D01*
X0130970Y0083248D02*
X0136728Y0083248D01*
X0137755Y0081649D02*
X0122095Y0081649D01*
X0120496Y0083248D02*
X0124630Y0083248D01*
X0123400Y0084846D02*
X0118898Y0084846D01*
X0117299Y0086445D02*
X0123400Y0086445D01*
X0123400Y0088043D02*
X0115701Y0088043D01*
X0114102Y0089642D02*
X0124919Y0089642D01*
X0124465Y0091240D02*
X0112504Y0091240D01*
X0110905Y0092839D02*
X0122867Y0092839D01*
X0121268Y0094437D02*
X0109307Y0094437D01*
X0110841Y0096036D02*
X0107708Y0096036D01*
X0106110Y0097634D02*
X0109400Y0097634D01*
X0109400Y0099233D02*
X0104511Y0099233D01*
X0102913Y0100832D02*
X0109400Y0100832D01*
X0110708Y0102430D02*
X0104153Y0102430D01*
X0105751Y0104029D02*
X0111677Y0104029D01*
X0110079Y0105627D02*
X0106200Y0105627D01*
X0106200Y0107226D02*
X0108480Y0107226D01*
X0106882Y0108824D02*
X0105498Y0108824D01*
X0105283Y0110423D02*
X0103900Y0110423D01*
X0103685Y0112021D02*
X0091723Y0112021D01*
X0093322Y0110423D02*
X0099700Y0110423D01*
X0101800Y0110423D02*
X0101800Y0110423D01*
X0101800Y0108824D02*
X0101800Y0108824D01*
X0101800Y0107226D02*
X0101800Y0107226D01*
X0098102Y0108824D02*
X0094920Y0108824D01*
X0096519Y0107226D02*
X0097400Y0107226D01*
X0102086Y0113620D02*
X0090124Y0113620D01*
X0088526Y0115218D02*
X0100488Y0115218D01*
X0098889Y0116817D02*
X0086927Y0116817D01*
X0085329Y0118415D02*
X0097291Y0118415D01*
X0095692Y0120014D02*
X0083730Y0120014D01*
X0082950Y0121612D02*
X0085864Y0121612D01*
X0084595Y0123211D02*
X0082950Y0123211D01*
X0082950Y0124809D02*
X0084250Y0124809D01*
X0084603Y0126408D02*
X0082950Y0126408D01*
X0082950Y0128006D02*
X0085882Y0128006D01*
X0082950Y0129605D02*
X0109400Y0129605D01*
X0109400Y0129300D02*
X0113800Y0129300D01*
X0113800Y0129300D01*
X0113800Y0133700D01*
X0115623Y0133700D01*
X0118200Y0131123D01*
X0118200Y0129300D01*
X0113800Y0129300D01*
X0113800Y0129300D01*
X0113800Y0129300D01*
X0113800Y0133700D01*
X0111977Y0133700D01*
X0109400Y0131123D01*
X0109400Y0129300D01*
X0109400Y0127477D01*
X0111977Y0124900D01*
X0113800Y0124900D01*
X0115623Y0124900D01*
X0118200Y0127477D01*
X0118200Y0129300D01*
X0113800Y0129300D01*
X0113800Y0124900D01*
X0113800Y0129300D01*
X0113800Y0129300D01*
X0109400Y0129300D01*
X0109400Y0128006D02*
X0090218Y0128006D01*
X0090236Y0121612D02*
X0094094Y0121612D01*
X0096086Y0126408D02*
X0110470Y0126408D01*
X0113800Y0126408D02*
X0113800Y0126408D01*
X0113800Y0128006D02*
X0113800Y0128006D01*
X0113800Y0129605D02*
X0113800Y0129605D01*
X0113800Y0131203D02*
X0113800Y0131203D01*
X0113800Y0132802D02*
X0113800Y0132802D01*
X0111079Y0132802D02*
X0104524Y0132802D01*
X0105200Y0133477D02*
X0105200Y0135300D01*
X0105200Y0137123D01*
X0102623Y0139700D01*
X0100800Y0139700D01*
X0100800Y0135300D01*
X0105200Y0135300D01*
X0100800Y0135300D01*
X0100800Y0135300D01*
X0100800Y0135300D01*
X0100800Y0130900D01*
X0102623Y0130900D01*
X0105200Y0133477D01*
X0105200Y0134400D02*
X0122556Y0134400D01*
X0124154Y0132802D02*
X0116521Y0132802D01*
X0118119Y0131203D02*
X0123481Y0131203D01*
X0123400Y0129605D02*
X0118200Y0129605D01*
X0118200Y0128006D02*
X0123400Y0128006D01*
X0124470Y0126408D02*
X0117130Y0126408D01*
X0109481Y0131203D02*
X0102926Y0131203D01*
X0100800Y0131203D02*
X0100800Y0131203D01*
X0100800Y0130900D02*
X0100800Y0135300D01*
X0100800Y0135300D01*
X0100800Y0135300D01*
X0096400Y0135300D01*
X0096400Y0137123D01*
X0098977Y0139700D01*
X0100800Y0139700D01*
X0100800Y0135300D01*
X0096400Y0135300D01*
X0096400Y0133477D01*
X0098977Y0130900D01*
X0100800Y0130900D01*
X0100800Y0132802D02*
X0100800Y0132802D01*
X0100800Y0134400D02*
X0100800Y0134400D01*
X0100800Y0135999D02*
X0100800Y0135999D01*
X0100800Y0137597D02*
X0100800Y0137597D01*
X0100800Y0139196D02*
X0100800Y0139196D01*
X0103127Y0139196D02*
X0117760Y0139196D01*
X0116162Y0140794D02*
X0082950Y0140794D01*
X0082950Y0139196D02*
X0098473Y0139196D01*
X0096875Y0137597D02*
X0082950Y0137597D01*
X0082950Y0135999D02*
X0096400Y0135999D01*
X0096400Y0134400D02*
X0082950Y0134400D01*
X0082950Y0132802D02*
X0097076Y0132802D01*
X0098674Y0131203D02*
X0082950Y0131203D01*
X0078150Y0131203D02*
X0072926Y0131203D01*
X0072623Y0130900D02*
X0075200Y0133477D01*
X0075200Y0137123D01*
X0072623Y0139700D01*
X0068977Y0139700D01*
X0066400Y0137123D01*
X0066400Y0133477D01*
X0068977Y0130900D01*
X0072623Y0130900D01*
X0074524Y0132802D02*
X0078150Y0132802D01*
X0078150Y0134400D02*
X0075200Y0134400D01*
X0075200Y0135999D02*
X0078150Y0135999D01*
X0078150Y0137597D02*
X0074725Y0137597D01*
X0073127Y0139196D02*
X0078150Y0139196D01*
X0078150Y0140794D02*
X0011600Y0140794D01*
X0011600Y0139196D02*
X0068473Y0139196D01*
X0066875Y0137597D02*
X0011600Y0137597D01*
X0011600Y0135999D02*
X0066400Y0135999D01*
X0066400Y0134400D02*
X0011600Y0134400D01*
X0011600Y0132802D02*
X0067076Y0132802D01*
X0068674Y0131203D02*
X0011600Y0131203D01*
X0011600Y0129605D02*
X0078150Y0129605D01*
X0078150Y0128006D02*
X0011600Y0128006D01*
X0011600Y0126408D02*
X0078150Y0126408D01*
X0078150Y0124809D02*
X0011600Y0124809D01*
X0011600Y0123211D02*
X0078150Y0123211D01*
X0078150Y0121612D02*
X0011600Y0121612D01*
X0011600Y0120014D02*
X0078150Y0120014D01*
X0079586Y0113620D02*
X0068494Y0113620D01*
X0069977Y0110700D02*
X0067400Y0108123D01*
X0067400Y0104477D01*
X0069977Y0101900D01*
X0073623Y0101900D01*
X0076200Y0104477D01*
X0076200Y0108123D01*
X0073623Y0110700D01*
X0069977Y0110700D01*
X0069700Y0110423D02*
X0011600Y0110423D01*
X0011600Y0112021D02*
X0081185Y0112021D01*
X0082783Y0110423D02*
X0073900Y0110423D01*
X0075498Y0108824D02*
X0084382Y0108824D01*
X0085980Y0107226D02*
X0076200Y0107226D01*
X0076200Y0105627D02*
X0087579Y0105627D01*
X0089177Y0104029D02*
X0075751Y0104029D01*
X0074153Y0102430D02*
X0090776Y0102430D01*
X0092374Y0100832D02*
X0011600Y0100832D01*
X0011600Y0102430D02*
X0069447Y0102430D01*
X0067849Y0104029D02*
X0011600Y0104029D01*
X0011600Y0105627D02*
X0067400Y0105627D01*
X0067400Y0107226D02*
X0011600Y0107226D01*
X0011600Y0108824D02*
X0068102Y0108824D01*
X0062606Y0113620D02*
X0011600Y0113620D01*
X0011600Y0115218D02*
X0061781Y0115218D01*
X0061754Y0116817D02*
X0011600Y0116817D01*
X0011600Y0118415D02*
X0062541Y0118415D01*
X0069108Y0143991D02*
X0011600Y0143991D01*
X0011600Y0142393D02*
X0078150Y0142393D01*
X0078150Y0143991D02*
X0074492Y0143991D01*
X0076090Y0145590D02*
X0078150Y0145590D01*
X0078150Y0147188D02*
X0076750Y0147188D01*
X0076750Y0148787D02*
X0078150Y0148787D01*
X0078150Y0150385D02*
X0076715Y0150385D01*
X0078150Y0151984D02*
X0075116Y0151984D01*
X0073850Y0153350D02*
X0076750Y0156250D01*
X0076750Y0158300D01*
X0071800Y0158300D01*
X0071800Y0158300D01*
X0071800Y0158300D01*
X0066850Y0158300D01*
X0066850Y0160350D01*
X0069750Y0163250D01*
X0071800Y0163250D01*
X0071800Y0158300D01*
X0071800Y0153350D01*
X0073850Y0153350D01*
X0074083Y0153582D02*
X0078150Y0153582D01*
X0078150Y0155181D02*
X0075681Y0155181D01*
X0076750Y0156779D02*
X0078150Y0156779D01*
X0077328Y0158378D02*
X0076750Y0158378D01*
X0079321Y0163173D02*
X0086673Y0163173D01*
X0086750Y0163250D02*
X0083850Y0160350D01*
X0083850Y0158300D01*
X0088800Y0158300D01*
X0088800Y0158300D01*
X0088800Y0163250D01*
X0090850Y0163250D01*
X0093750Y0160350D01*
X0093750Y0158300D01*
X0088800Y0158300D01*
X0088800Y0158300D01*
X0088800Y0158300D01*
X0088800Y0163250D01*
X0086750Y0163250D01*
X0088800Y0163173D02*
X0088800Y0163173D01*
X0088800Y0161575D02*
X0088800Y0161575D01*
X0088800Y0159976D02*
X0088800Y0159976D01*
X0088800Y0158378D02*
X0088800Y0158378D01*
X0088800Y0158300D02*
X0083850Y0158300D01*
X0083850Y0156250D01*
X0086750Y0153350D01*
X0088800Y0153350D01*
X0090850Y0153350D01*
X0093750Y0156250D01*
X0093750Y0158300D01*
X0088800Y0158300D01*
X0088800Y0153350D01*
X0088800Y0158300D01*
X0088800Y0158300D01*
X0088800Y0156779D02*
X0088800Y0156779D01*
X0088800Y0155181D02*
X0088800Y0155181D01*
X0088800Y0153582D02*
X0088800Y0153582D01*
X0090850Y0153250D02*
X0086750Y0153250D01*
X0083850Y0150350D01*
X0083850Y0146250D01*
X0086750Y0143350D01*
X0090850Y0143350D01*
X0093750Y0146250D01*
X0093750Y0150350D01*
X0090850Y0153250D01*
X0091083Y0153582D02*
X0103373Y0153582D01*
X0101775Y0155181D02*
X0092681Y0155181D01*
X0093750Y0156779D02*
X0100176Y0156779D01*
X0099400Y0158378D02*
X0093750Y0158378D01*
X0093750Y0159976D02*
X0099400Y0159976D01*
X0099400Y0161575D02*
X0092525Y0161575D01*
X0090927Y0163173D02*
X0099400Y0163173D01*
X0099400Y0164772D02*
X0077722Y0164772D01*
X0076124Y0166370D02*
X0099400Y0166370D01*
X0099400Y0167969D02*
X0074525Y0167969D01*
X0075750Y0168350D02*
X0079850Y0168350D01*
X0082750Y0171250D01*
X0082750Y0175350D01*
X0079850Y0178250D01*
X0075750Y0178250D01*
X0072850Y0175350D01*
X0072850Y0171250D01*
X0075750Y0168350D01*
X0074532Y0169568D02*
X0072927Y0169568D01*
X0072934Y0171166D02*
X0071328Y0171166D01*
X0072850Y0172765D02*
X0069730Y0172765D01*
X0068131Y0174363D02*
X0072850Y0174363D01*
X0073461Y0175962D02*
X0066533Y0175962D01*
X0064934Y0177560D02*
X0075060Y0177560D01*
X0080540Y0177560D02*
X0084396Y0177560D01*
X0084400Y0177556D02*
X0084400Y0176900D01*
X0082850Y0175350D01*
X0082850Y0171250D01*
X0085750Y0168350D01*
X0089850Y0168350D01*
X0092750Y0171250D01*
X0092750Y0175350D01*
X0089850Y0178250D01*
X0089200Y0178250D01*
X0089200Y0179027D01*
X0088835Y0179909D01*
X0082622Y0186122D01*
X0082750Y0186250D01*
X0082750Y0190350D01*
X0079850Y0193250D01*
X0075750Y0193250D01*
X0072850Y0190350D01*
X0072850Y0186250D01*
X0075750Y0183350D01*
X0078606Y0183350D01*
X0084400Y0177556D01*
X0083461Y0175962D02*
X0082139Y0175962D01*
X0082750Y0174363D02*
X0082850Y0174363D01*
X0082850Y0172765D02*
X0082750Y0172765D01*
X0082666Y0171166D02*
X0082934Y0171166D01*
X0084532Y0169568D02*
X0081068Y0169568D01*
X0080919Y0161575D02*
X0085075Y0161575D01*
X0083850Y0159976D02*
X0082518Y0159976D01*
X0082950Y0158378D02*
X0083850Y0158378D01*
X0083850Y0156779D02*
X0082950Y0156779D01*
X0082950Y0155181D02*
X0084919Y0155181D01*
X0086517Y0153582D02*
X0082950Y0153582D01*
X0082950Y0151984D02*
X0085484Y0151984D01*
X0083885Y0150385D02*
X0082950Y0150385D01*
X0082950Y0148787D02*
X0083850Y0148787D01*
X0083850Y0147188D02*
X0082950Y0147188D01*
X0082950Y0145590D02*
X0084510Y0145590D01*
X0082950Y0143991D02*
X0086108Y0143991D01*
X0082950Y0142393D02*
X0114563Y0142393D01*
X0112965Y0143991D02*
X0104714Y0143991D01*
X0106312Y0145590D02*
X0111366Y0145590D01*
X0109768Y0147188D02*
X0107200Y0147188D01*
X0107200Y0148787D02*
X0108169Y0148787D01*
X0100886Y0143991D02*
X0091492Y0143991D01*
X0093090Y0145590D02*
X0099288Y0145590D01*
X0098400Y0147188D02*
X0093750Y0147188D01*
X0093750Y0148787D02*
X0098400Y0148787D01*
X0098663Y0150385D02*
X0093715Y0150385D01*
X0092116Y0151984D02*
X0100261Y0151984D01*
X0104725Y0137597D02*
X0119359Y0137597D01*
X0120957Y0135999D02*
X0105200Y0135999D01*
X0097685Y0124809D02*
X0139521Y0124809D01*
X0138396Y0123211D02*
X0099283Y0123211D01*
X0100882Y0121612D02*
X0138000Y0121612D01*
X0138137Y0120014D02*
X0102480Y0120014D01*
X0104079Y0118415D02*
X0138897Y0118415D01*
X0141081Y0116817D02*
X0105677Y0116817D01*
X0107276Y0115218D02*
X0139930Y0115218D01*
X0138565Y0113620D02*
X0108874Y0113620D01*
X0110473Y0112021D02*
X0138000Y0112021D01*
X0138000Y0110423D02*
X0112072Y0110423D01*
X0113670Y0108824D02*
X0138630Y0108824D01*
X0140094Y0107226D02*
X0115269Y0107226D01*
X0116867Y0105627D02*
X0140719Y0105627D01*
X0138849Y0104029D02*
X0118466Y0104029D01*
X0120064Y0102430D02*
X0124708Y0102430D01*
X0123400Y0100832D02*
X0121663Y0100832D01*
X0123261Y0099233D02*
X0123400Y0099233D01*
X0119670Y0096036D02*
X0116759Y0096036D01*
X0108359Y0084846D02*
X0102200Y0084846D01*
X0102200Y0084477D02*
X0099623Y0081900D01*
X0095977Y0081900D01*
X0093400Y0084477D01*
X0093400Y0088123D01*
X0095977Y0090700D01*
X0099623Y0090700D01*
X0102200Y0088123D01*
X0102200Y0084477D01*
X0100970Y0083248D02*
X0109958Y0083248D01*
X0111556Y0081649D02*
X0062095Y0081649D01*
X0060200Y0084846D02*
X0081400Y0084846D01*
X0081400Y0084477D02*
X0083977Y0081900D01*
X0087623Y0081900D01*
X0090200Y0084477D01*
X0090200Y0088123D01*
X0087623Y0090700D01*
X0083977Y0090700D01*
X0081400Y0088123D01*
X0081400Y0084477D01*
X0082630Y0083248D02*
X0058970Y0083248D01*
X0060200Y0086445D02*
X0081400Y0086445D01*
X0081400Y0088043D02*
X0060200Y0088043D01*
X0058681Y0089642D02*
X0082919Y0089642D01*
X0088681Y0089642D02*
X0094919Y0089642D01*
X0093400Y0088043D02*
X0090200Y0088043D01*
X0090200Y0086445D02*
X0093400Y0086445D01*
X0093400Y0084846D02*
X0090200Y0084846D01*
X0088970Y0083248D02*
X0094630Y0083248D01*
X0100681Y0089642D02*
X0103564Y0089642D01*
X0102200Y0088043D02*
X0105162Y0088043D01*
X0106761Y0086445D02*
X0102200Y0086445D01*
X0101965Y0091240D02*
X0011600Y0091240D01*
X0011600Y0089642D02*
X0012919Y0089642D01*
X0011600Y0092839D02*
X0100367Y0092839D01*
X0098768Y0094437D02*
X0011600Y0094437D01*
X0011600Y0096036D02*
X0097170Y0096036D01*
X0095571Y0097634D02*
X0011600Y0097634D01*
X0011600Y0099233D02*
X0093973Y0099233D01*
X0101193Y0080051D02*
X0113155Y0080051D01*
X0114754Y0078452D02*
X0102792Y0078452D01*
X0104390Y0076854D02*
X0116352Y0076854D01*
X0117951Y0075255D02*
X0105989Y0075255D01*
X0107587Y0073657D02*
X0119549Y0073657D01*
X0121148Y0072058D02*
X0109186Y0072058D01*
X0110784Y0070460D02*
X0122746Y0070460D01*
X0123400Y0068861D02*
X0112383Y0068861D01*
X0102200Y0057672D02*
X0123400Y0057672D01*
X0123400Y0058123D02*
X0123400Y0056300D01*
X0127800Y0056300D01*
X0132200Y0056300D01*
X0132200Y0058123D01*
X0131673Y0058650D01*
X0138702Y0058650D01*
X0138731Y0058581D01*
X0140081Y0057231D01*
X0141845Y0056500D01*
X0149755Y0056500D01*
X0150701Y0056892D01*
X0150701Y0055719D01*
X0150643Y0055748D01*
X0149924Y0055982D01*
X0149178Y0056100D01*
X0146000Y0056100D01*
X0146000Y0051500D01*
X0145600Y0051500D01*
X0145600Y0056100D01*
X0142422Y0056100D01*
X0141676Y0055982D01*
X0140957Y0055748D01*
X0140284Y0055405D01*
X0139673Y0054961D01*
X0139139Y0054427D01*
X0138695Y0053816D01*
X0138352Y0053143D01*
X0138118Y0052424D01*
X0138000Y0051678D01*
X0138000Y0051500D01*
X0145600Y0051500D01*
X0145600Y0051100D01*
X0146000Y0051100D01*
X0146000Y0046500D01*
X0149178Y0046500D01*
X0149924Y0046618D01*
X0150643Y0046852D01*
X0150701Y0046881D01*
X0150701Y0045708D01*
X0149755Y0046100D01*
X0141845Y0046100D01*
X0140081Y0045369D01*
X0138731Y0044019D01*
X0138000Y0042255D01*
X0138000Y0040345D01*
X0138731Y0038581D01*
X0140081Y0037231D01*
X0141845Y0036500D01*
X0149755Y0036500D01*
X0150701Y0036892D01*
X0150701Y0032100D01*
X0067900Y0032100D01*
X0068200Y0032825D01*
X0068200Y0039775D01*
X0067530Y0041392D01*
X0066292Y0042630D01*
X0065681Y0042884D01*
X0066519Y0043231D01*
X0067869Y0044581D01*
X0068600Y0046345D01*
X0068600Y0054255D01*
X0068231Y0055145D01*
X0068823Y0054900D01*
X0093400Y0054900D01*
X0093400Y0054477D01*
X0095977Y0051900D01*
X0099623Y0051900D01*
X0102200Y0054477D01*
X0102200Y0058123D01*
X0099623Y0060700D01*
X0095977Y0060700D01*
X0094977Y0059700D01*
X0070294Y0059700D01*
X0066335Y0063659D01*
X0065659Y0064335D01*
X0064777Y0064700D01*
X0054044Y0064700D01*
X0050200Y0068544D01*
X0050200Y0072123D01*
X0047623Y0074700D01*
X0047594Y0074700D01*
X0047794Y0074900D01*
X0058306Y0074900D01*
X0071691Y0061515D01*
X0072573Y0061150D01*
X0128306Y0061150D01*
X0128756Y0060700D01*
X0127800Y0060700D01*
X0127800Y0056300D01*
X0127800Y0056300D01*
X0127800Y0056300D01*
X0132200Y0056300D01*
X0132200Y0054477D01*
X0129623Y0051900D01*
X0127800Y0051900D01*
X0127800Y0056300D01*
X0127800Y0056300D01*
X0127800Y0056300D01*
X0127800Y0060700D01*
X0125977Y0060700D01*
X0123400Y0058123D01*
X0124548Y0059270D02*
X0101052Y0059270D01*
X0102200Y0056073D02*
X0123400Y0056073D01*
X0123400Y0056300D02*
X0123400Y0054477D01*
X0125977Y0051900D01*
X0127800Y0051900D01*
X0127800Y0056300D01*
X0123400Y0056300D01*
X0123403Y0054475D02*
X0102197Y0054475D01*
X0100599Y0052876D02*
X0125001Y0052876D01*
X0127800Y0052876D02*
X0127800Y0052876D01*
X0127800Y0054475D02*
X0127800Y0054475D01*
X0127800Y0056073D02*
X0127800Y0056073D01*
X0127800Y0057672D02*
X0127800Y0057672D01*
X0127800Y0059270D02*
X0127800Y0059270D01*
X0128587Y0060869D02*
X0069125Y0060869D01*
X0067527Y0062467D02*
X0070739Y0062467D01*
X0069140Y0064066D02*
X0065928Y0064066D01*
X0067542Y0065664D02*
X0053080Y0065664D01*
X0053977Y0065900D02*
X0055800Y0065900D01*
X0057623Y0065900D01*
X0060200Y0068477D01*
X0060200Y0070300D01*
X0060200Y0072123D01*
X0057623Y0074700D01*
X0055800Y0074700D01*
X0055800Y0070300D01*
X0060200Y0070300D01*
X0055800Y0070300D01*
X0055800Y0070300D01*
X0055800Y0070300D01*
X0055800Y0065900D01*
X0055800Y0070300D01*
X0055800Y0070300D01*
X0055800Y0070300D01*
X0051400Y0070300D01*
X0051400Y0072123D01*
X0053977Y0074700D01*
X0055800Y0074700D01*
X0055800Y0070300D01*
X0051400Y0070300D01*
X0051400Y0068477D01*
X0053977Y0065900D01*
X0052615Y0067263D02*
X0051481Y0067263D01*
X0051400Y0068861D02*
X0050200Y0068861D01*
X0050200Y0070460D02*
X0051400Y0070460D01*
X0051400Y0072058D02*
X0050200Y0072058D01*
X0048666Y0073657D02*
X0052934Y0073657D01*
X0055800Y0073657D02*
X0055800Y0073657D01*
X0055800Y0072058D02*
X0055800Y0072058D01*
X0055800Y0070460D02*
X0055800Y0070460D01*
X0055800Y0068861D02*
X0055800Y0068861D01*
X0055800Y0067263D02*
X0055800Y0067263D01*
X0058985Y0067263D02*
X0065943Y0067263D01*
X0064345Y0068861D02*
X0060200Y0068861D01*
X0060200Y0070460D02*
X0062746Y0070460D01*
X0061148Y0072058D02*
X0060200Y0072058D01*
X0059549Y0073657D02*
X0058666Y0073657D01*
X0052630Y0083248D02*
X0048970Y0083248D01*
X0050200Y0084846D02*
X0051400Y0084846D01*
X0051400Y0086445D02*
X0050200Y0086445D01*
X0050200Y0088043D02*
X0051400Y0088043D01*
X0052919Y0089642D02*
X0048681Y0089642D01*
X0042919Y0089642D02*
X0018681Y0089642D01*
X0020200Y0088043D02*
X0041400Y0088043D01*
X0041400Y0086445D02*
X0020200Y0086445D01*
X0020200Y0084846D02*
X0041400Y0084846D01*
X0042630Y0083248D02*
X0018970Y0083248D01*
X0015800Y0083248D02*
X0015800Y0083248D01*
X0015800Y0081900D02*
X0015800Y0086300D01*
X0015800Y0086300D01*
X0015800Y0081900D01*
X0015800Y0084846D02*
X0015800Y0084846D01*
X0015800Y0086445D02*
X0015800Y0086445D01*
X0015800Y0088043D02*
X0015800Y0088043D01*
X0015800Y0089642D02*
X0015800Y0089642D01*
X0012630Y0083248D02*
X0011600Y0083248D01*
X0011600Y0081649D02*
X0036505Y0081649D01*
X0034907Y0080051D02*
X0011600Y0080051D01*
X0011600Y0078452D02*
X0033308Y0078452D01*
X0031710Y0076854D02*
X0011600Y0076854D01*
X0011600Y0075255D02*
X0030111Y0075255D01*
X0028513Y0073657D02*
X0018666Y0073657D01*
X0020200Y0072058D02*
X0026914Y0072058D01*
X0025316Y0070460D02*
X0020200Y0070460D01*
X0020200Y0068861D02*
X0023717Y0068861D01*
X0022119Y0067263D02*
X0018985Y0067263D01*
X0020520Y0065664D02*
X0011600Y0065664D01*
X0011600Y0064066D02*
X0018922Y0064066D01*
X0017323Y0062467D02*
X0011600Y0062467D01*
X0011600Y0060869D02*
X0015725Y0060869D01*
X0014126Y0059270D02*
X0011600Y0059270D01*
X0011600Y0057672D02*
X0011811Y0057672D01*
X0011600Y0067263D02*
X0012615Y0067263D01*
X0012934Y0073657D02*
X0011600Y0073657D01*
X0011600Y0145590D02*
X0063866Y0145590D01*
X0062268Y0147188D02*
X0011600Y0147188D01*
X0011600Y0148787D02*
X0060669Y0148787D01*
X0059071Y0150385D02*
X0011600Y0150385D01*
X0011600Y0151984D02*
X0057472Y0151984D01*
X0055873Y0153582D02*
X0011600Y0153582D01*
X0011600Y0155181D02*
X0054275Y0155181D01*
X0052676Y0156779D02*
X0011600Y0156779D01*
X0011600Y0158378D02*
X0051078Y0158378D01*
X0049479Y0159976D02*
X0011600Y0159976D01*
X0011600Y0161575D02*
X0047881Y0161575D01*
X0046282Y0163173D02*
X0011600Y0163173D01*
X0011600Y0164772D02*
X0044684Y0164772D01*
X0043085Y0166370D02*
X0011600Y0166370D01*
X0011600Y0167969D02*
X0041487Y0167969D01*
X0039888Y0169568D02*
X0011600Y0169568D01*
X0011600Y0171166D02*
X0038290Y0171166D01*
X0036691Y0172765D02*
X0011600Y0172765D01*
X0011600Y0174363D02*
X0035093Y0174363D01*
X0033494Y0175962D02*
X0011600Y0175962D01*
X0011600Y0177560D02*
X0031896Y0177560D01*
X0030297Y0179159D02*
X0011600Y0179159D01*
X0011600Y0180757D02*
X0028699Y0180757D01*
X0027100Y0182356D02*
X0011600Y0182356D01*
X0011600Y0183954D02*
X0025502Y0183954D01*
X0023903Y0185553D02*
X0011600Y0185553D01*
X0011600Y0187151D02*
X0022305Y0187151D01*
X0020706Y0188750D02*
X0011600Y0188750D01*
X0011600Y0190348D02*
X0019108Y0190348D01*
X0017509Y0191947D02*
X0011600Y0191947D01*
X0011600Y0193545D02*
X0015911Y0193545D01*
X0019502Y0196742D02*
X0019664Y0196742D01*
X0019731Y0196581D02*
X0021081Y0195231D01*
X0022845Y0194500D01*
X0024755Y0194500D01*
X0026519Y0195231D01*
X0027869Y0196581D01*
X0028600Y0198345D01*
X0028600Y0206255D01*
X0027869Y0208019D01*
X0026519Y0209369D01*
X0024755Y0210100D01*
X0022845Y0210100D01*
X0021081Y0209369D01*
X0019731Y0208019D01*
X0019000Y0206255D01*
X0019000Y0198345D01*
X0019731Y0196581D01*
X0019002Y0198341D02*
X0018598Y0198341D01*
X0018600Y0199939D02*
X0019000Y0199939D01*
X0019000Y0201538D02*
X0018600Y0201538D01*
X0018600Y0203136D02*
X0019000Y0203136D01*
X0019000Y0204735D02*
X0018600Y0204735D01*
X0018567Y0206333D02*
X0019033Y0206333D01*
X0019695Y0207932D02*
X0017905Y0207932D01*
X0016130Y0209530D02*
X0021470Y0209530D01*
X0020550Y0212727D02*
X0017050Y0212727D01*
X0017993Y0214326D02*
X0019607Y0214326D01*
X0019400Y0215924D02*
X0018200Y0215924D01*
X0018200Y0217523D02*
X0019400Y0217523D01*
X0019400Y0219121D02*
X0018200Y0219121D01*
X0018200Y0220720D02*
X0019400Y0220720D01*
X0019625Y0222318D02*
X0017975Y0222318D01*
X0011600Y0211129D02*
X0121500Y0211129D01*
X0121844Y0209530D02*
X0066130Y0209530D01*
X0067905Y0207932D02*
X0075431Y0207932D01*
X0075750Y0208250D02*
X0072850Y0205350D01*
X0072850Y0203300D01*
X0077800Y0203300D01*
X0082750Y0203300D01*
X0082750Y0205350D01*
X0079850Y0208250D01*
X0077800Y0208250D01*
X0077800Y0203300D01*
X0077800Y0203300D01*
X0077800Y0203300D01*
X0082750Y0203300D01*
X0082750Y0201250D01*
X0079850Y0198350D01*
X0077800Y0198350D01*
X0077800Y0203300D01*
X0077800Y0203300D01*
X0077800Y0203300D01*
X0077800Y0208250D01*
X0075750Y0208250D01*
X0073833Y0206333D02*
X0068567Y0206333D01*
X0068600Y0204735D02*
X0072850Y0204735D01*
X0072850Y0203300D02*
X0072850Y0201250D01*
X0075750Y0198350D01*
X0077800Y0198350D01*
X0077800Y0203300D01*
X0072850Y0203300D01*
X0072850Y0203136D02*
X0068600Y0203136D01*
X0068600Y0201538D02*
X0072850Y0201538D01*
X0074160Y0199939D02*
X0068600Y0199939D01*
X0068598Y0198341D02*
X0150701Y0198341D01*
X0150701Y0199939D02*
X0091440Y0199939D01*
X0092750Y0201250D02*
X0089850Y0198350D01*
X0085750Y0198350D01*
X0082850Y0201250D01*
X0082850Y0205350D01*
X0085750Y0208250D01*
X0089850Y0208250D01*
X0092750Y0205350D01*
X0092750Y0201250D01*
X0092750Y0201538D02*
X0129305Y0201538D01*
X0126072Y0203136D02*
X0092750Y0203136D01*
X0092750Y0204735D02*
X0124385Y0204735D01*
X0123197Y0206333D02*
X0091767Y0206333D01*
X0090169Y0207932D02*
X0122274Y0207932D01*
X0122073Y0215924D02*
X0106647Y0215924D01*
X0107200Y0217523D02*
X0122767Y0217523D01*
X0123690Y0219121D02*
X0107200Y0219121D01*
X0106603Y0220720D02*
X0125239Y0220720D01*
X0127552Y0222318D02*
X0105004Y0222318D01*
X0100596Y0222318D02*
X0090782Y0222318D01*
X0092380Y0220720D02*
X0098997Y0220720D01*
X0098400Y0219121D02*
X0092750Y0219121D01*
X0092750Y0218300D02*
X0087800Y0218300D01*
X0087800Y0218300D01*
X0087800Y0213350D01*
X0089850Y0213350D01*
X0092750Y0216250D01*
X0092750Y0218300D01*
X0092750Y0217523D02*
X0098400Y0217523D01*
X0098953Y0215924D02*
X0092425Y0215924D01*
X0090826Y0214326D02*
X0100552Y0214326D01*
X0087800Y0214326D02*
X0087800Y0214326D01*
X0087800Y0213350D02*
X0087800Y0218300D01*
X0087800Y0218300D01*
X0087800Y0218300D01*
X0082850Y0218300D01*
X0082850Y0216250D01*
X0085750Y0213350D01*
X0087800Y0213350D01*
X0087800Y0215924D02*
X0087800Y0215924D01*
X0087800Y0217523D02*
X0087800Y0217523D01*
X0084774Y0214326D02*
X0080826Y0214326D01*
X0082425Y0215924D02*
X0083175Y0215924D01*
X0082850Y0217523D02*
X0082750Y0217523D01*
X0082750Y0219121D02*
X0082850Y0219121D01*
X0083220Y0220720D02*
X0082380Y0220720D01*
X0080782Y0222318D02*
X0084818Y0222318D01*
X0085431Y0207932D02*
X0080169Y0207932D01*
X0081767Y0206333D02*
X0083833Y0206333D01*
X0082850Y0204735D02*
X0082750Y0204735D01*
X0082750Y0203136D02*
X0082850Y0203136D01*
X0082850Y0201538D02*
X0082750Y0201538D01*
X0081440Y0199939D02*
X0084160Y0199939D01*
X0077800Y0199939D02*
X0077800Y0199939D01*
X0077800Y0201538D02*
X0077800Y0201538D01*
X0077800Y0203136D02*
X0077800Y0203136D01*
X0077800Y0204735D02*
X0077800Y0204735D01*
X0077800Y0206333D02*
X0077800Y0206333D01*
X0077800Y0207932D02*
X0077800Y0207932D01*
X0067936Y0196742D02*
X0150701Y0196742D01*
X0150701Y0195144D02*
X0066309Y0195144D01*
X0072850Y0190348D02*
X0056700Y0190348D01*
X0056700Y0188750D02*
X0072850Y0188750D01*
X0072850Y0187151D02*
X0056700Y0187151D01*
X0056941Y0185553D02*
X0073547Y0185553D01*
X0075146Y0183954D02*
X0058540Y0183954D01*
X0060138Y0182356D02*
X0079600Y0182356D01*
X0081199Y0180757D02*
X0061737Y0180757D01*
X0063336Y0179159D02*
X0082797Y0179159D01*
X0086388Y0182356D02*
X0100633Y0182356D01*
X0100923Y0183954D02*
X0090454Y0183954D01*
X0089850Y0183350D02*
X0092750Y0186250D01*
X0092750Y0190350D01*
X0089850Y0193250D01*
X0085750Y0193250D01*
X0082850Y0190350D01*
X0082850Y0186250D01*
X0085750Y0183350D01*
X0089850Y0183350D01*
X0092053Y0185553D02*
X0099325Y0185553D01*
X0098400Y0187151D02*
X0092750Y0187151D01*
X0092750Y0188750D02*
X0098400Y0188750D01*
X0098626Y0190348D02*
X0092750Y0190348D01*
X0091154Y0191947D02*
X0100224Y0191947D01*
X0099035Y0180757D02*
X0087987Y0180757D01*
X0089146Y0179159D02*
X0098400Y0179159D01*
X0098400Y0177560D02*
X0090540Y0177560D01*
X0092139Y0175962D02*
X0098916Y0175962D01*
X0099400Y0174363D02*
X0092750Y0174363D01*
X0092750Y0172765D02*
X0099400Y0172765D01*
X0099400Y0171166D02*
X0092666Y0171166D01*
X0091068Y0169568D02*
X0099400Y0169568D01*
X0085146Y0183954D02*
X0084790Y0183954D01*
X0083547Y0185553D02*
X0083191Y0185553D01*
X0082850Y0187151D02*
X0082750Y0187151D01*
X0082750Y0188750D02*
X0082850Y0188750D01*
X0082850Y0190348D02*
X0082750Y0190348D01*
X0081154Y0191947D02*
X0084446Y0191947D01*
X0074446Y0191947D02*
X0056700Y0191947D01*
X0051900Y0191947D02*
X0024297Y0191947D01*
X0022699Y0193545D02*
X0051900Y0193545D01*
X0051291Y0195144D02*
X0046216Y0195144D01*
X0046316Y0195195D02*
X0045643Y0194852D01*
X0044924Y0194618D01*
X0044178Y0194500D01*
X0044000Y0194500D01*
X0044000Y0202100D01*
X0044000Y0202500D01*
X0048600Y0202500D01*
X0048600Y0205678D01*
X0048482Y0206424D01*
X0048248Y0207143D01*
X0047905Y0207816D01*
X0047461Y0208427D01*
X0046927Y0208961D01*
X0046316Y0209405D01*
X0045643Y0209748D01*
X0044924Y0209982D01*
X0044178Y0210100D01*
X0044000Y0210100D01*
X0044000Y0202500D01*
X0043600Y0202500D01*
X0043600Y0210100D01*
X0043422Y0210100D01*
X0042676Y0209982D01*
X0041957Y0209748D01*
X0041284Y0209405D01*
X0040673Y0208961D01*
X0040139Y0208427D01*
X0039695Y0207816D01*
X0039352Y0207143D01*
X0039118Y0206424D01*
X0039000Y0205678D01*
X0039000Y0202500D01*
X0043600Y0202500D01*
X0043600Y0202100D01*
X0044000Y0202100D01*
X0048600Y0202100D01*
X0048600Y0198922D01*
X0048482Y0198176D01*
X0048248Y0197457D01*
X0047905Y0196784D01*
X0047461Y0196173D01*
X0046927Y0195639D01*
X0046316Y0195195D01*
X0047875Y0196742D02*
X0049664Y0196742D01*
X0049002Y0198341D02*
X0048508Y0198341D01*
X0048600Y0199939D02*
X0049000Y0199939D01*
X0049000Y0201538D02*
X0048600Y0201538D01*
X0048600Y0203136D02*
X0049000Y0203136D01*
X0049000Y0204735D02*
X0048600Y0204735D01*
X0048496Y0206333D02*
X0049033Y0206333D01*
X0049695Y0207932D02*
X0047821Y0207932D01*
X0046070Y0209530D02*
X0051470Y0209530D01*
X0050550Y0212727D02*
X0047050Y0212727D01*
X0047156Y0212834D02*
X0047563Y0213394D01*
X0047878Y0214011D01*
X0048092Y0214670D01*
X0048200Y0215354D01*
X0048200Y0218300D01*
X0043800Y0218300D01*
X0043800Y0218300D01*
X0043800Y0211300D01*
X0044146Y0211300D01*
X0044830Y0211408D01*
X0045489Y0211622D01*
X0046106Y0211937D01*
X0046666Y0212344D01*
X0047156Y0212834D01*
X0047980Y0214326D02*
X0049607Y0214326D01*
X0049400Y0215924D02*
X0048200Y0215924D01*
X0048200Y0217523D02*
X0049400Y0217523D01*
X0049400Y0219121D02*
X0048200Y0219121D01*
X0048200Y0220720D02*
X0049400Y0220720D01*
X0049625Y0222318D02*
X0047966Y0222318D01*
X0043800Y0218300D02*
X0043800Y0218300D01*
X0043800Y0218300D01*
X0043800Y0211300D01*
X0043454Y0211300D01*
X0042770Y0211408D01*
X0042111Y0211622D01*
X0041494Y0211937D01*
X0040934Y0212344D01*
X0040444Y0212834D01*
X0040037Y0213394D01*
X0039722Y0214011D01*
X0039508Y0214670D01*
X0039400Y0215354D01*
X0039400Y0218300D01*
X0043800Y0218300D01*
X0043800Y0217523D02*
X0043800Y0217523D01*
X0043800Y0215924D02*
X0043800Y0215924D01*
X0043800Y0214326D02*
X0043800Y0214326D01*
X0043800Y0212727D02*
X0043800Y0212727D01*
X0043600Y0209530D02*
X0044000Y0209530D01*
X0044000Y0207932D02*
X0043600Y0207932D01*
X0043600Y0206333D02*
X0044000Y0206333D01*
X0044000Y0204735D02*
X0043600Y0204735D01*
X0043600Y0203136D02*
X0044000Y0203136D01*
X0043600Y0202100D02*
X0039000Y0202100D01*
X0039000Y0198922D01*
X0039118Y0198176D01*
X0039352Y0197457D01*
X0039695Y0196784D01*
X0040139Y0196173D01*
X0040673Y0195639D01*
X0041284Y0195195D01*
X0041957Y0194852D01*
X0042676Y0194618D01*
X0043422Y0194500D01*
X0043600Y0194500D01*
X0043600Y0202100D01*
X0043600Y0201538D02*
X0044000Y0201538D01*
X0044000Y0199939D02*
X0043600Y0199939D01*
X0043600Y0198341D02*
X0044000Y0198341D01*
X0044000Y0196742D02*
X0043600Y0196742D01*
X0043600Y0195144D02*
X0044000Y0195144D01*
X0041384Y0195144D02*
X0036309Y0195144D01*
X0036519Y0195231D02*
X0034755Y0194500D01*
X0032845Y0194500D01*
X0031081Y0195231D01*
X0029731Y0196581D01*
X0029000Y0198345D01*
X0029000Y0206255D01*
X0029731Y0208019D01*
X0031081Y0209369D01*
X0032845Y0210100D01*
X0034755Y0210100D01*
X0036519Y0209369D01*
X0037869Y0208019D01*
X0038600Y0206255D01*
X0038600Y0198345D01*
X0037869Y0196581D01*
X0036519Y0195231D01*
X0037936Y0196742D02*
X0039725Y0196742D01*
X0039092Y0198341D02*
X0038598Y0198341D01*
X0038600Y0199939D02*
X0039000Y0199939D01*
X0039000Y0201538D02*
X0038600Y0201538D01*
X0038600Y0203136D02*
X0039000Y0203136D01*
X0039000Y0204735D02*
X0038600Y0204735D01*
X0038567Y0206333D02*
X0039104Y0206333D01*
X0039779Y0207932D02*
X0037905Y0207932D01*
X0036130Y0209530D02*
X0041530Y0209530D01*
X0040550Y0212727D02*
X0037050Y0212727D01*
X0037993Y0214326D02*
X0039620Y0214326D01*
X0039400Y0215924D02*
X0038200Y0215924D01*
X0038200Y0217523D02*
X0039400Y0217523D01*
X0039400Y0219121D02*
X0038200Y0219121D01*
X0038200Y0220720D02*
X0039400Y0220720D01*
X0039634Y0222318D02*
X0037975Y0222318D01*
X0030550Y0212727D02*
X0027050Y0212727D01*
X0027993Y0214326D02*
X0029607Y0214326D01*
X0029400Y0215924D02*
X0028200Y0215924D01*
X0028200Y0217523D02*
X0029400Y0217523D01*
X0029400Y0219121D02*
X0028200Y0219121D01*
X0028200Y0220720D02*
X0029400Y0220720D01*
X0029625Y0222318D02*
X0027975Y0222318D01*
X0026130Y0209530D02*
X0031470Y0209530D01*
X0029695Y0207932D02*
X0027905Y0207932D01*
X0028567Y0206333D02*
X0029033Y0206333D01*
X0029000Y0204735D02*
X0028600Y0204735D01*
X0028600Y0203136D02*
X0029000Y0203136D01*
X0029000Y0201538D02*
X0028600Y0201538D01*
X0028600Y0199939D02*
X0029000Y0199939D01*
X0029002Y0198341D02*
X0028598Y0198341D01*
X0027936Y0196742D02*
X0029664Y0196742D01*
X0031291Y0195144D02*
X0026309Y0195144D01*
X0025896Y0190348D02*
X0051900Y0190348D01*
X0051900Y0188750D02*
X0027494Y0188750D01*
X0029093Y0187151D02*
X0051900Y0187151D01*
X0051900Y0185553D02*
X0030691Y0185553D01*
X0032290Y0183954D02*
X0052053Y0183954D01*
X0053350Y0182356D02*
X0033888Y0182356D01*
X0035487Y0180757D02*
X0054949Y0180757D01*
X0056547Y0179159D02*
X0037086Y0179159D01*
X0038684Y0177560D02*
X0058146Y0177560D01*
X0059744Y0175962D02*
X0040283Y0175962D01*
X0041881Y0174363D02*
X0061343Y0174363D01*
X0062941Y0172765D02*
X0043480Y0172765D01*
X0045078Y0171166D02*
X0064540Y0171166D01*
X0066138Y0169568D02*
X0046677Y0169568D01*
X0048275Y0167969D02*
X0067737Y0167969D01*
X0069335Y0166370D02*
X0049874Y0166370D01*
X0051472Y0164772D02*
X0070934Y0164772D01*
X0071800Y0163173D02*
X0071800Y0163173D01*
X0071800Y0161575D02*
X0071800Y0161575D01*
X0071800Y0159976D02*
X0071800Y0159976D01*
X0071800Y0158378D02*
X0071800Y0158378D01*
X0071800Y0158300D02*
X0066850Y0158300D01*
X0066850Y0156250D01*
X0069750Y0153350D01*
X0071800Y0153350D01*
X0071800Y0158300D01*
X0071800Y0158300D01*
X0071800Y0156779D02*
X0071800Y0156779D01*
X0071800Y0155181D02*
X0071800Y0155181D01*
X0071800Y0153582D02*
X0071800Y0153582D01*
X0069517Y0153582D02*
X0062662Y0153582D01*
X0064260Y0151984D02*
X0068484Y0151984D01*
X0066885Y0150385D02*
X0065859Y0150385D01*
X0067919Y0155181D02*
X0061063Y0155181D01*
X0059465Y0156779D02*
X0066850Y0156779D01*
X0066850Y0158378D02*
X0057866Y0158378D01*
X0056268Y0159976D02*
X0066850Y0159976D01*
X0068075Y0161575D02*
X0054669Y0161575D01*
X0053071Y0163173D02*
X0069673Y0163173D01*
X0021291Y0195144D02*
X0021100Y0195144D01*
X0068509Y0054475D02*
X0093403Y0054475D01*
X0095001Y0052876D02*
X0068600Y0052876D01*
X0068600Y0051278D02*
X0145600Y0051278D01*
X0145600Y0051100D02*
X0138000Y0051100D01*
X0138000Y0050922D01*
X0138118Y0050176D01*
X0138352Y0049457D01*
X0138695Y0048784D01*
X0139139Y0048173D01*
X0139673Y0047639D01*
X0140284Y0047195D01*
X0140957Y0046852D01*
X0141676Y0046618D01*
X0142422Y0046500D01*
X0145600Y0046500D01*
X0145600Y0051100D01*
X0145600Y0049679D02*
X0146000Y0049679D01*
X0146000Y0048081D02*
X0145600Y0048081D01*
X0145600Y0052876D02*
X0146000Y0052876D01*
X0146000Y0054475D02*
X0145600Y0054475D01*
X0145600Y0056073D02*
X0146000Y0056073D01*
X0149347Y0056073D02*
X0150701Y0056073D01*
X0150701Y0046482D02*
X0088581Y0046482D01*
X0088581Y0048027D02*
X0087527Y0049081D01*
X0082073Y0049081D01*
X0081019Y0048027D01*
X0081019Y0042573D01*
X0082073Y0041519D01*
X0087527Y0041519D01*
X0088581Y0042573D01*
X0088581Y0048027D01*
X0088527Y0048081D02*
X0139231Y0048081D01*
X0138280Y0049679D02*
X0068600Y0049679D01*
X0068600Y0048081D02*
X0081073Y0048081D01*
X0081019Y0046482D02*
X0068600Y0046482D01*
X0067995Y0044884D02*
X0081019Y0044884D01*
X0081019Y0043285D02*
X0066573Y0043285D01*
X0067236Y0041687D02*
X0081906Y0041687D01*
X0087694Y0041687D02*
X0093400Y0041687D01*
X0093400Y0043123D02*
X0093400Y0039477D01*
X0095977Y0036900D01*
X0099623Y0036900D01*
X0102200Y0039477D01*
X0102200Y0043123D01*
X0099623Y0045700D01*
X0095977Y0045700D01*
X0093400Y0043123D01*
X0093563Y0043285D02*
X0088581Y0043285D01*
X0088581Y0044884D02*
X0095161Y0044884D01*
X0093400Y0040088D02*
X0068070Y0040088D01*
X0068200Y0038490D02*
X0094388Y0038490D01*
X0100439Y0044884D02*
X0125161Y0044884D01*
X0125977Y0045700D02*
X0123400Y0043123D01*
X0123400Y0039477D01*
X0125977Y0036900D01*
X0129623Y0036900D01*
X0132200Y0039477D01*
X0132200Y0043123D01*
X0129623Y0045700D01*
X0125977Y0045700D01*
X0123563Y0043285D02*
X0102037Y0043285D01*
X0102200Y0041687D02*
X0123400Y0041687D01*
X0123400Y0040088D02*
X0102200Y0040088D01*
X0101212Y0038490D02*
X0124388Y0038490D01*
X0130439Y0044884D02*
X0139595Y0044884D01*
X0138427Y0043285D02*
X0132037Y0043285D01*
X0132200Y0041687D02*
X0138000Y0041687D01*
X0138106Y0040088D02*
X0132200Y0040088D01*
X0131212Y0038490D02*
X0138822Y0038490D01*
X0140901Y0036891D02*
X0068200Y0036891D01*
X0068200Y0035293D02*
X0150701Y0035293D01*
X0150699Y0036891D02*
X0150701Y0036891D01*
X0150701Y0033694D02*
X0068200Y0033694D01*
X0130599Y0052876D02*
X0138265Y0052876D01*
X0139186Y0054475D02*
X0132197Y0054475D01*
X0132200Y0056073D02*
X0142253Y0056073D01*
X0139640Y0057672D02*
X0132200Y0057672D01*
X0135901Y0134400D02*
X0139699Y0134400D01*
X0138101Y0135999D02*
X0137499Y0135999D01*
X0137750Y0137597D02*
X0137850Y0137597D01*
X0137850Y0139196D02*
X0137750Y0139196D01*
X0137306Y0140794D02*
X0138294Y0140794D01*
X0139892Y0142393D02*
X0135708Y0142393D01*
X0135480Y0145590D02*
X0140120Y0145590D01*
X0138444Y0147188D02*
X0137156Y0147188D01*
X0136295Y0201538D02*
X0150701Y0201538D01*
X0150701Y0203136D02*
X0139528Y0203136D01*
X0141215Y0204735D02*
X0150701Y0204735D01*
X0150701Y0206333D02*
X0142403Y0206333D01*
X0143326Y0207932D02*
X0150701Y0207932D01*
X0150701Y0209530D02*
X0143756Y0209530D01*
X0144100Y0211129D02*
X0150701Y0211129D01*
X0150701Y0212727D02*
X0144100Y0212727D01*
X0143956Y0214326D02*
X0150701Y0214326D01*
X0150701Y0215924D02*
X0143527Y0215924D01*
X0142833Y0217523D02*
X0150701Y0217523D01*
X0150701Y0219121D02*
X0141910Y0219121D01*
X0140361Y0220720D02*
X0150701Y0220720D01*
X0150701Y0222318D02*
X0138048Y0222318D01*
D17*
X0102800Y0178300D02*
X0101800Y0177300D01*
X0101800Y0158550D01*
X0126800Y0133550D01*
X0126800Y0129800D01*
X0127800Y0129300D01*
X0094300Y0124800D02*
X0128050Y0091050D01*
X0134300Y0091050D01*
X0139300Y0086050D01*
X0145550Y0086050D02*
X0138050Y0078550D01*
X0121800Y0078550D01*
X0080550Y0119800D01*
X0080550Y0158550D01*
X0054300Y0184800D01*
X0054300Y0202300D01*
X0053800Y0202300D01*
X0077800Y0188300D02*
X0078050Y0187300D01*
X0086800Y0178550D01*
X0086800Y0173550D01*
X0087800Y0173300D01*
X0071800Y0148300D02*
X0071800Y0147300D01*
X0065550Y0147300D01*
X0014300Y0198550D01*
X0014300Y0202300D01*
X0013800Y0202300D01*
X0065550Y0116050D02*
X0080550Y0116050D01*
X0126800Y0069800D01*
X0127800Y0070300D01*
X0130550Y0066050D02*
X0111800Y0066050D01*
X0099300Y0078550D01*
X0061800Y0078550D01*
X0060550Y0079800D01*
X0038050Y0079800D01*
X0014300Y0056050D01*
X0014300Y0051050D01*
X0013800Y0050300D01*
X0023800Y0050300D02*
X0024300Y0051050D01*
X0024300Y0054800D01*
X0046800Y0077300D01*
X0059300Y0077300D01*
X0073050Y0063550D01*
X0129300Y0063550D01*
X0131800Y0061050D01*
X0145550Y0061050D01*
X0145800Y0061300D01*
X0145550Y0071050D02*
X0145800Y0071300D01*
X0145550Y0071050D02*
X0135550Y0071050D01*
X0130550Y0066050D01*
X0145550Y0086050D02*
X0145550Y0091050D01*
X0145800Y0091300D01*
X0097800Y0056300D02*
X0096800Y0057300D01*
X0069300Y0057300D01*
X0064300Y0062300D01*
X0053050Y0062300D01*
X0045550Y0069800D01*
X0045800Y0070300D01*
X0088050Y0124800D02*
X0094300Y0124800D01*
D18*
X0088050Y0124800D03*
X0065550Y0116050D03*
X0139300Y0086050D03*
D19*
X0084800Y0045300D03*
M02*
